<svg width="72" height="42" viewBox="0 0 72 42" fill="none" xmlns="http://www.w3.org/2000/svg">
<path d="M59.8151 15.1027H56.1481L51.0029 7.58696C47.9648 3.14927 42.9403 0.5 37.5626 0.5H26.7293C21.3514 0.5 16.327 3.14927 13.2891 7.58696L8.00328 15.3082C3.2654 16.8728 0 21.3506 0 26.3761V29.9863C0 32.309 1.88965 34.1986 4.21233 34.1986H7.05719C7.05354 34.292 7.05003 34.3852 7.05003 34.4795C7.05003 38.3506 10.1995 41.5 14.0706 41.5C17.9417 41.5 21.0911 38.3506 21.0911 34.4795C21.0911 34.3852 21.0878 34.292 21.084 34.1986H29.7466C30.5221 34.1986 31.1507 33.5699 31.1507 32.7945C31.1507 32.0192 30.5221 31.3904 29.7466 31.3904H20.3731C19.2283 29.0641 16.8337 27.4589 14.0706 27.4589C11.3074 27.4589 8.91287 29.0641 7.7681 31.3904H4.21233C3.4381 31.3904 2.80822 30.7605 2.80822 29.9863V26.3761C2.80822 22.4283 5.46283 18.9257 9.26361 17.8587C9.5808 17.7696 9.85671 17.5719 10.0428 17.3L15.6063 9.17332C18.1203 5.50074 22.2786 3.30822 26.7292 3.30822H37.5625C42.0131 3.30822 46.1713 5.50074 48.6855 9.17332L54.2489 17.2999C54.5106 17.6824 54.9442 17.911 55.4076 17.911H59.8151C64.925 17.911 69.0822 22.0681 69.0822 27.1781V31.3904H64.3625C63.2176 29.0641 60.8232 27.4589 58.0599 27.4589C55.2966 27.4589 52.9022 29.0641 51.7573 31.3904H42.3836C41.6083 31.3904 40.9795 32.0192 40.9795 32.7945C40.9795 33.5699 41.6083 34.1986 42.3836 34.1986H51.0464C51.0427 34.292 51.0392 34.3852 51.0392 34.4795C51.0392 38.3506 54.1887 41.5 58.0598 41.5C61.9309 41.5 65.0803 38.3506 65.0803 34.4795C65.0803 34.3852 65.077 34.292 65.0732 34.1986H70.4863C71.2616 34.1986 71.8904 33.5699 71.8904 32.7945V27.1781C71.8904 20.5197 66.4735 15.1027 59.8151 15.1027ZM14.0706 30.2671C16.3933 30.2671 18.2829 32.1568 18.2829 34.4795C18.2829 36.8021 16.3933 38.6918 14.0706 38.6918C11.7479 38.6918 9.85825 36.8021 9.85825 34.4795C9.85825 32.1568 11.748 30.2671 14.0706 30.2671ZM58.0599 38.6918C55.7372 38.6918 53.8476 36.8021 53.8476 34.4795C53.8476 32.1568 55.7372 30.2671 58.0599 30.2671C60.3826 30.2671 62.2723 32.1568 62.2723 34.4795C62.2723 36.8021 60.3826 38.6918 58.0599 38.6918Z" fill="#1F62F4"/>
<path d="M14.0696 35.8837C14.4389 35.8837 14.8012 35.7334 15.0623 35.4721C15.3235 35.2111 15.4737 34.8488 15.4737 34.4795C15.4737 34.1103 15.3235 33.748 15.0623 33.4868C14.8012 33.2257 14.4389 33.0754 14.0696 33.0754C13.7004 33.0754 13.3381 33.2255 13.0769 33.4868C12.8158 33.748 12.6655 34.1103 12.6655 34.4795C12.6655 34.8488 12.8158 35.2111 13.0769 35.4721C13.3381 35.7334 13.7004 35.8837 14.0696 35.8837Z" fill="#1F62F4"/>
<path d="M58.0599 33.0754C57.6906 33.0754 57.3283 33.2255 57.0672 33.4868C56.806 33.748 56.6558 34.1103 56.6558 34.4795C56.6558 34.8488 56.8059 35.2111 57.0672 35.4721C57.3283 35.7333 57.6906 35.8837 58.0599 35.8837C58.4292 35.8837 58.7914 35.7334 59.0524 35.4721C59.3136 35.2111 59.464 34.8488 59.464 34.4795C59.464 34.1103 59.3137 33.748 59.0524 33.4868C58.7914 33.2255 58.4292 33.0754 58.0599 33.0754Z" fill="#1F62F4"/>
<path d="M33.7679 17.9111L48.6003 17.9112C49.1213 17.9112 49.5994 17.6228 49.8424 17.162C50.0853 16.7013 50.0533 16.1437 49.759 15.7139L46.3675 10.7598C44.3769 7.85234 41.085 6.11658 37.5616 6.11658H33.7679C32.9924 6.11658 32.3638 6.7452 32.3638 7.52069V16.507C32.3638 17.2825 32.9924 17.9111 33.7679 17.9111ZM35.172 8.9248H37.5616C40.1578 8.9248 42.5836 10.2038 44.0502 12.346L45.9374 15.103L35.172 15.1029V8.9248Z" fill="#1F62F4"/>
<path d="M26.7284 6.11654C23.2051 6.11654 19.913 7.8523 17.9225 10.7598L14.5312 15.7136C14.2369 16.1434 14.2047 16.701 14.4478 17.1617C14.6907 17.6225 15.1689 17.9109 15.6899 17.9109H28.1516C28.9271 17.9109 29.5557 17.2823 29.5557 16.5068V7.5205C29.5557 6.74501 28.9271 6.11639 28.1516 6.11639H26.7284V6.11654ZM26.7475 15.1028H18.3526L20.2397 12.3463C21.7066 10.2038 24.1322 8.92475 26.7284 8.92475H26.7475V15.1028Z" fill="#1F62F4"/>
<path d="M36.8335 22.1583C36.8335 21.383 36.2048 20.7542 35.4294 20.7542H33.7679C32.9924 20.7542 32.3638 21.383 32.3638 22.1583C32.3638 22.9337 32.9924 23.5624 33.7679 23.5624H35.4294C36.2048 23.5624 36.8335 22.9337 36.8335 22.1583Z" fill="#1F62F4"/>
<path d="M36.0667 31.3904C35.696 31.3904 35.3352 31.5405 35.0726 31.8018C34.8114 32.063 34.6626 32.4253 34.6626 32.7946C34.6626 33.1638 34.8114 33.5261 35.0726 33.7871C35.3352 34.0483 35.6974 34.1987 36.0667 34.1987C36.4346 34.1987 36.7968 34.0484 37.0594 33.7871C37.3206 33.5261 37.4694 33.1638 37.4694 32.7946C37.4694 32.4253 37.3206 32.063 37.0594 31.8018C36.7968 31.5405 36.436 31.3904 36.0667 31.3904Z" fill="#1F62F4"/>
</svg>
