<svg width="46" height="47" viewBox="0 0 46 47" fill="none" xmlns="http://www.w3.org/2000/svg">
<path d="M45.987 6.86378C45.987 3.35478 43.1323 0.5 39.6233 0.5C36.5748 0.5 34.0213 2.6551 33.4033 5.52156H24.5766C23.3769 5.52156 22.2491 5.98864 21.4005 6.83692L1.31599 26.9167C0.467441 27.7651 1.29529e-08 28.8932 1.29529e-08 30.0931C-8.98278e-05 31.2931 0.467172 32.4212 1.31572 33.2698L13.2302 45.1843C14.0787 46.0326 15.2067 46.5 16.4065 46.5C17.6064 46.5 18.7344 46.0327 19.5829 45.1843L26.5315 38.2356C26.8823 37.8848 26.8823 37.3159 26.5315 36.965C26.1806 36.6143 25.6119 36.6143 25.2609 36.965L18.3122 43.9137C17.2614 44.9645 15.5515 44.9645 14.5007 43.9137L2.58616 31.9992C2.07703 31.4901 1.79664 30.8133 1.79673 30.0932C1.79673 29.3732 2.07712 28.6964 2.58634 28.1874L22.671 8.10763C23.18 7.59868 23.8568 7.31837 24.5766 7.31837H33.2774C33.3846 8.84675 34.0293 10.2695 35.1233 11.3635C35.4743 11.7144 36.043 11.7144 36.3939 11.3635C36.7448 11.0127 36.7448 10.4439 36.394 10.093C35.6395 9.33844 35.1815 8.36637 35.0787 7.31828H36.4917C37.9778 7.31828 39.1869 8.52736 39.1869 10.0135V21.9228C39.1869 22.6427 38.9066 23.3196 38.3975 23.8286L30.9783 31.2477C30.6275 31.5986 30.6275 32.1674 30.9783 32.5183C31.3293 32.8691 31.898 32.8691 32.249 32.5183L39.6681 25.0992C40.5165 24.2508 40.9838 23.1227 40.9838 21.9229V13.0808C43.8809 12.4552 45.987 9.89878 45.987 6.86378ZM40.9837 11.2255V10.0135C40.9837 7.5366 38.9686 5.52147 36.4917 5.52147H35.258C35.8327 3.65629 37.5721 2.29682 39.6233 2.29682C42.1414 2.29682 44.1902 4.34554 44.1902 6.86378C44.1902 8.90595 42.8623 10.6462 40.9837 11.2255Z" fill="#FF7F00"/>
<path d="M12.3898 30.0445C12.7407 29.6936 12.7407 29.1248 12.3898 28.7739C12.0389 28.4231 11.4702 28.4231 11.1192 28.7739L8.95648 30.9366C8.60565 31.2874 8.60565 31.8563 8.95648 32.2072L14.2927 37.5435C14.4681 37.7189 14.698 37.8066 14.9279 37.8066C15.1578 37.8066 15.3877 37.7189 15.5632 37.5435C15.914 37.1927 15.914 36.6238 15.5632 36.2729L13.4798 34.1895L14.8355 32.8338C15.1863 32.4829 15.1863 31.9141 14.8355 31.5631C14.4846 31.2124 13.9159 31.2124 13.5649 31.5631L12.2092 32.9188L10.8621 31.5718L12.3898 30.0445Z" fill="#FF7F00"/>
<path d="M22.9947 29.7409C23.4648 29.7409 23.8602 29.3755 23.8904 28.8998C23.9221 28.4046 23.5463 27.9776 23.0511 27.946L20.081 27.7566C20.3307 27.3275 20.4723 26.8419 20.488 26.3369C20.5127 25.5422 20.2257 24.8039 19.6797 24.2579C18.5648 23.1429 16.7154 23.178 15.5569 24.3363L14.1389 25.7544C14.1386 25.7546 14.1383 25.755 14.138 25.7552C14.1378 25.7555 14.1374 25.7558 14.1371 25.7561C13.7863 26.1069 13.7863 26.6758 14.1371 27.0267L19.4734 32.3629C19.6489 32.5382 19.8788 32.626 20.1087 32.626C20.3386 32.626 20.5685 32.5382 20.7439 32.3629C21.0948 32.012 21.0948 31.4432 20.7439 31.0922L19.1492 29.4976L22.9365 29.7391C22.9562 29.7403 22.9756 29.7409 22.9947 29.7409ZM16.8276 25.6068C17.2775 25.1569 18.0017 25.121 18.4092 25.5284C18.6008 25.72 18.7012 25.9871 18.6921 26.2807C18.6825 26.5876 18.5508 26.8898 18.3306 27.1099C18.1505 27.29 17.8402 27.6029 17.5568 27.8891C17.277 27.6121 16.9732 27.3108 16.7999 27.1376C16.6517 26.9895 16.3385 26.6779 16.0467 26.3876L16.8276 25.6068Z" fill="#FF7F00"/>
<path d="M31.7441 21.3625L33.9926 19.114C34.3434 18.7632 34.3434 18.1943 33.9926 17.8434C33.6417 17.4927 33.073 17.4927 32.722 17.8434L31.1088 19.4566L29.7112 18.059L31.1585 16.6116C31.5094 16.2608 31.5094 15.6919 31.1585 15.341C30.8076 14.9902 30.2389 14.9902 29.8879 15.341L28.4406 16.7884L27.0429 15.3907L28.6562 13.7776C29.007 13.4267 29.007 12.8579 28.6562 12.507C28.3053 12.1562 27.7366 12.1562 27.3856 12.507L25.1371 14.7554C24.7863 15.1062 24.7863 15.6751 25.1371 16.026L27.8049 18.6937L27.8053 18.6942C27.8053 18.6942 27.8056 18.6945 27.8058 18.6946L30.4734 21.3624C30.642 21.5308 30.8704 21.6255 31.1087 21.6255C31.3469 21.6255 31.5756 21.5309 31.7441 21.3625Z" fill="#FF7F00"/>
<path d="M25.8987 26.8361C26.137 26.8361 26.3654 26.7414 26.534 26.5729L28.7824 24.3245C29.1333 23.9737 29.1333 23.4048 28.7824 23.0539C28.4315 22.7031 27.8628 22.7031 27.5118 23.0539L25.8986 24.6671L24.5011 23.2695L25.9486 21.8221C26.2994 21.4712 26.2994 20.9024 25.9486 20.5515C25.5978 20.2009 25.0291 20.2007 24.678 20.5515L23.2305 21.9989L21.833 20.6013L23.4462 18.9881C23.7971 18.6373 23.7971 18.0684 23.4462 17.7175C23.0953 17.3668 22.5266 17.3668 22.1756 17.7175L19.9272 19.966C19.5764 20.3168 19.5764 20.8857 19.9272 21.2366L25.2634 26.5729C25.4319 26.7414 25.6604 26.8361 25.8987 26.8361Z" fill="#FF7F00"/>
<path d="M28.7549 33.8434C28.5186 33.8434 28.2868 33.9395 28.1197 34.1066C27.9527 34.2737 27.8564 34.5055 27.8564 34.7418C27.8564 34.9781 27.9526 35.2099 28.1197 35.377C28.2868 35.544 28.5186 35.6403 28.7549 35.6403C28.9912 35.6403 29.223 35.5441 29.3901 35.377C29.5571 35.2099 29.6533 34.9781 29.6533 34.7418C29.6533 34.5055 29.5572 34.2737 29.3901 34.1066C29.223 33.9395 28.9912 33.8434 28.7549 33.8434Z" fill="#FF7F00"/>
</svg>
