<svg width="91" height="91" viewBox="0 0 91 91" fill="none" xmlns="http://www.w3.org/2000/svg">
<rect width="91" height="91" rx="45.5" fill="#FFF2E4"/>
<path d="M69.3698 39.6027H65.7028L60.5576 32.087C57.5195 27.6493 52.495 25 47.1173 25H36.284C30.9061 25 25.8817 27.6493 22.8437 32.087L17.558 39.8082C12.8201 41.3728 9.55469 45.8506 9.55469 50.8761V54.4863C9.55469 56.809 11.4443 58.6986 13.767 58.6986H16.6119C16.6082 58.792 16.6047 58.8852 16.6047 58.9795C16.6047 62.8506 19.7541 66 23.6253 66C27.4964 66 30.6458 62.8506 30.6458 58.9795C30.6458 58.8852 30.6424 58.792 30.6387 58.6986H39.3013C40.0768 58.6986 40.7054 58.0699 40.7054 57.2945C40.7054 56.5192 40.0768 55.8904 39.3013 55.8904H29.9278C28.783 53.5641 26.3884 51.9589 23.6253 51.9589C20.8621 51.9589 18.4676 53.5641 17.3228 55.8904H13.767C12.9928 55.8904 12.3629 55.2605 12.3629 54.4863V50.8761C12.3629 46.9283 15.0175 43.4257 18.8183 42.3587C19.1355 42.2696 19.4114 42.0719 19.5974 41.8L25.1609 33.6733C27.675 30.0007 31.8333 27.8082 36.2839 27.8082H47.1171C51.5677 27.8082 55.726 30.0007 58.2402 33.6733L63.8036 41.7999C64.0653 42.1824 64.4989 42.411 64.9622 42.411H69.3698C74.4797 42.411 78.6369 46.5681 78.6369 51.6781V55.8904H73.9172C72.7723 53.5641 70.3779 51.9589 67.6146 51.9589C64.8513 51.9589 62.4569 53.5641 61.312 55.8904H51.9383C51.1629 55.8904 50.5342 56.5192 50.5342 57.2945C50.5342 58.0699 51.1629 58.6986 51.9383 58.6986H60.6011C60.5974 58.792 60.5939 58.8852 60.5939 58.9795C60.5939 62.8506 63.7433 66 67.6145 66C71.4856 66 74.635 62.8506 74.635 58.9795C74.635 58.8852 74.6317 58.792 74.6279 58.6986H80.041C80.8163 58.6986 81.4451 58.0699 81.4451 57.2945V51.6781C81.4451 45.0197 76.0282 39.6027 69.3698 39.6027ZM23.6253 54.7671C25.9479 54.7671 27.8376 56.6568 27.8376 58.9795C27.8376 61.3021 25.9479 63.1918 23.6253 63.1918C21.3026 63.1918 19.4129 61.3021 19.4129 58.9795C19.4129 56.6568 21.3027 54.7671 23.6253 54.7671ZM67.6146 63.1918C65.2919 63.1918 63.4023 61.3021 63.4023 58.9795C63.4023 56.6568 65.2919 54.7671 67.6146 54.7671C69.9373 54.7671 71.8269 56.6568 71.8269 58.9795C71.8269 61.3021 69.9373 63.1918 67.6146 63.1918Z" fill="#FF8336"/>
<path d="M23.6248 60.3837C23.9941 60.3837 24.3564 60.2334 24.6175 59.9721C24.8787 59.7111 25.0289 59.3488 25.0289 58.9795C25.0289 58.6103 24.8787 58.248 24.6175 57.9868C24.3564 57.7257 23.9941 57.5754 23.6248 57.5754C23.2555 57.5754 22.8933 57.7255 22.6321 57.9868C22.3709 58.248 22.2207 58.6103 22.2207 58.9795C22.2207 59.3488 22.3709 59.7111 22.6321 59.9721C22.8933 60.2334 23.2555 60.3837 23.6248 60.3837Z" fill="#FF8336"/>
<path d="M67.6141 57.5754C67.2448 57.5754 66.8825 57.7255 66.6214 57.9868C66.3602 58.248 66.21 58.6103 66.21 58.9795C66.21 59.3488 66.3601 59.7111 66.6214 59.9721C66.8825 60.2333 67.2448 60.3837 67.6141 60.3837C67.9834 60.3837 68.3456 60.2334 68.6066 59.9721C68.8678 59.7111 69.0182 59.3488 69.0182 58.9795C69.0182 58.6103 68.8679 58.248 68.6066 57.9868C68.3456 57.7255 67.9834 57.5754 67.6141 57.5754Z" fill="#FF8336"/>
<path d="M43.3231 42.411L58.1555 42.4111C58.6764 42.4111 59.1545 42.1227 59.3976 41.6619C59.6405 41.2012 59.6085 40.6436 59.3142 40.2138L55.9227 35.2597C53.9321 32.3522 50.6402 30.6165 47.1168 30.6165H43.3231C42.5476 30.6165 41.9189 31.2451 41.9189 32.0206V41.0069C41.9189 41.7824 42.5476 42.411 43.3231 42.411ZM44.7272 33.4247H47.1168C49.713 33.4247 52.1388 34.7037 53.6053 36.8459L55.4926 39.6029L44.7272 39.6028V33.4247Z" fill="#FF8336"/>
<path d="M36.2836 30.6166C32.7602 30.6166 29.4682 32.3524 27.4777 35.2598L24.0864 40.2137C23.7921 40.6435 23.7599 41.2011 24.003 41.6617C24.2459 42.1226 24.7241 42.411 25.245 42.411H37.7068C38.4823 42.411 39.1109 41.7824 39.1109 41.0069V32.0206C39.1109 31.2451 38.4823 30.6165 37.7068 30.6165H36.2836V30.6166ZM36.3027 39.6029H27.9078L29.7949 36.8463C31.2618 34.7038 33.6874 33.4248 36.2836 33.4248H36.3027V39.6029Z" fill="#FF8336"/>
<path d="M46.3886 46.6583C46.3886 45.8829 45.76 45.2542 44.9845 45.2542H43.3231C42.5476 45.2542 41.9189 45.8829 41.9189 46.6583C41.9189 47.4336 42.5476 48.0624 43.3231 48.0624H44.9845C45.76 48.0624 46.3886 47.4336 46.3886 46.6583Z" fill="#FF8336"/>
<path d="M45.6209 55.8904C45.2502 55.8904 44.8894 56.0405 44.6268 56.3018C44.3656 56.5629 44.2168 56.9252 44.2168 57.2945C44.2168 57.6638 44.3656 58.026 44.6268 58.2871C44.8894 58.5482 45.2516 58.6986 45.6209 58.6986C45.9888 58.6986 46.351 58.5484 46.6136 58.2871C46.8748 58.026 47.0236 57.6638 47.0236 57.2945C47.0236 56.9252 46.8748 56.5629 46.6136 56.3018C46.351 56.0405 45.9902 55.8904 45.6209 55.8904Z" fill="#FF8336"/>
</svg>
