<svg width="91" height="91" viewBox="0 0 91 91" fill="none" xmlns="http://www.w3.org/2000/svg">
<rect width="91" height="91" rx="45.5" fill="#E4FFE1"/>
<path d="M70.5 48.6847C70.5 45.1734 68.7976 41.8202 65.946 39.7153C65.3645 39.2847 64.6436 39.0484 63.9169 39.0484C63.0073 39.0484 62.1548 39.4121 61.529 40.0306C61.4121 39.9331 61.3056 39.8258 61.1847 39.7331C60.7371 39.3911 60.2 39.1879 59.6484 39.104L60.004 35.1935C60.0121 35.1 60.0161 35.0056 60.0161 34.9113C60.0161 33.1903 58.6161 31.7903 56.8952 31.7903H56.6855C54.9645 31.7903 53.5645 33.1903 53.5645 34.9113C53.5645 35.0056 53.5685 35.1 53.5774 35.1944L53.9347 39.1218C53.4234 39.2185 52.929 39.4161 52.5113 39.7274C52.3669 39.8355 52.2387 39.9597 52.1 40.0734C52.0282 39.9992 51.9524 39.9298 51.8742 39.8629C51.9202 39.5944 51.9516 39.3226 51.9516 39.0484C51.9516 38.0242 51.6323 37.0444 51.0403 36.2258C51.6323 35.4073 51.9516 34.4282 51.9516 33.4032C51.9516 30.6419 49.6153 28.404 46.8315 28.5734C46.3137 27.0895 45.1065 25.971 43.6226 25.5395C42.6403 24.3145 41.1597 23.6347 39.5734 23.7347C38.9056 21.821 37.0976 20.5 35.0161 20.5C33.2702 20.5 31.6806 21.4339 30.8242 22.9218C28.6887 22.9935 26.8427 24.5008 26.3137 26.554C23.8169 27.4855 22.1129 29.9024 22.1129 32.5968C22.1129 34.7573 23.1758 36.7323 24.9347 37.9258C24.6694 38.5315 24.5323 39.1863 24.5323 39.8548C24.5323 41.3065 25.1774 42.6556 26.2847 43.5694C26.1919 43.9436 26.1452 44.3202 26.1452 44.6935C26.1452 47.1645 28.0081 49.2097 30.4032 49.4976L32.1871 54.4935C31.2734 55.1669 30.4952 56.0097 29.896 56.9774L25.671 56.0387C25.5105 56.0016 25.3452 55.9839 25.179 55.9839C23.9331 55.9839 22.9194 56.9976 22.9194 58.2435V58.5629C22.9194 58.7887 22.9629 59.0032 23.025 59.2097H22.9194C21.5855 59.2097 20.5 60.2952 20.5 61.629C20.5 62.9629 21.5855 64.0484 22.9194 64.0484H23.025C22.9629 64.2548 22.9194 64.4694 22.9194 64.6952V65.0145C22.9194 66.2605 23.9331 67.2742 25.179 67.2742C25.3452 67.2742 25.5105 67.2565 25.6694 67.2202L29.896 66.2806C31.4613 68.8081 34.2508 70.5 37.4355 70.5H37.625C38.0734 70.5 38.5274 70.4653 38.9734 70.3968L66.6274 66.1427C68.871 65.7968 70.5 63.8992 70.5 61.629C70.5 59.8137 69.4492 58.2516 67.8847 57.5153C69.5556 55.5194 70.5 52.9871 70.5 50.3798V48.6847ZM60.204 41.0145C62.6113 42.8548 64.0484 45.7863 64.0484 48.8581V51.8202C64.0484 53.4734 63.6363 55.0919 62.8597 56.5363L56.3927 55.5411C56.1266 54.371 55.9839 53.1758 55.9839 51.9758V48.7016C55.9839 47.8887 56.0653 47.0766 56.1887 46.2718C56.3863 46.2887 56.5831 46.3065 56.7903 46.3065C59.0895 46.3065 60.8226 45.2661 60.8226 43.8871C60.8226 43.1258 60.296 42.45 59.3839 42.0065L59.5024 40.7016C59.754 40.7524 59.996 40.854 60.204 41.0145ZM56.6855 33.4032H56.896C57.7274 33.4032 58.404 34.0798 58.404 34.9113C58.404 34.9573 58.4024 35.0032 58.3976 35.0484L57.6653 43.1024L58.2806 43.3C58.9871 43.5258 59.2097 43.8234 59.2097 43.8871C59.2097 44.0879 58.3516 44.6935 56.7903 44.6935C55.229 44.6935 54.371 44.0879 54.371 43.8871C54.371 43.8234 54.5935 43.5258 55.3 43.2992L55.9153 43.1016L55.1831 35.0484C55.179 35.0024 55.1774 34.9565 55.1774 34.9113C55.1774 34.0798 55.854 33.4032 56.6855 33.4032ZM54.0806 40.7282L54.1968 42.0065C53.2847 42.45 52.7581 43.1258 52.7581 43.8871C52.7581 44.7758 53.4831 45.5185 54.6097 45.9379C54.4653 46.8532 54.371 47.7774 54.371 48.7016V51.9758C54.371 53.0839 54.4774 54.1903 54.6839 55.2782L49.9298 54.5468C49.671 53.6605 49.5323 52.7468 49.5323 51.8194V48.8573C49.5323 45.7903 51.0065 42.8597 53.4758 41.0194C53.6556 40.8855 53.8629 40.7871 54.0806 40.7282ZM45.3653 53.8444C44.9274 52.7363 44.6935 51.5758 44.6935 50.3798V48.6839C44.6935 45.6823 46.1516 42.8145 48.5927 41.0113C48.8992 40.7855 49.2798 40.6613 49.6637 40.6613C50.1508 40.6613 50.5992 40.8573 50.9274 41.1855C49.0258 43.2694 47.9194 46.0065 47.9194 48.8581V51.8202C47.9194 52.6516 48.0185 53.4742 48.1984 54.2806L45.3653 53.8444ZM45.4411 29.6137L45.5879 30.4435L46.4105 30.2605C46.6605 30.2048 46.8903 30.1774 47.1129 30.1774C48.8919 30.1774 50.3387 31.6242 50.3387 33.4032C50.3387 34.2508 50.0097 35.0524 49.4129 35.6605L48.8581 36.2258L49.4129 36.7911C50.0097 37.3992 50.3387 38.2008 50.3387 39.0484C50.3387 39.0726 50.3339 39.0968 50.3339 39.1218C50.1153 39.0782 49.8927 39.0484 49.6637 39.0484C48.9371 39.0484 48.2161 39.2847 47.6347 39.7145C46.1669 40.7976 45.0113 42.2145 44.2274 43.8105C43.9218 42.8589 43.6008 41.9476 43.2702 41.0823C44.0161 37.1419 46.7831 34.8613 46.8113 34.8379L46.3065 34.2097L45.8024 33.5798C45.6903 33.6694 43.5089 35.4508 42.2839 38.6645C40.6056 34.8113 39.0218 32.3185 38.9202 32.1605L37.5629 33.0331C37.5847 33.0661 38.8145 35.0008 40.246 38.0806C37.8339 37.1726 35.0927 37.4234 34.9355 37.4395L35.096 39.0444C36.3089 38.9226 39.7444 38.9815 41.3492 40.6194C41.9145 42.0089 42.4718 43.5323 42.9637 45.1645C40.5121 43.9073 37.5871 43.8871 37.4355 43.8871V45.5C37.4734 45.5 41.0637 45.5242 43.1887 47.2137C43.1226 47.6992 43.0806 48.1895 43.0806 48.6847V50.3806C43.0806 51.4702 43.2484 52.5355 43.5597 53.5677L38.9734 52.8621C38.7315 52.825 38.4871 52.8 38.2419 52.7823C36.4629 52.7823 35.0161 51.3242 35.0161 49.5331C35.0161 49.1573 35.0911 48.7718 35.2379 48.3855L35.4734 47.7685L34.9145 47.4153C33.9685 46.8169 33.4032 45.8 33.4032 44.6935C33.4032 44.0589 33.5895 43.4435 33.9419 42.9129L34.4444 42.1581L33.6363 41.7476C32 40.9153 30.9839 39.2637 30.9839 37.4355C30.9839 35.2895 32.4258 33.3782 34.4911 32.7871L34.9919 32.6435L35.0669 32.1282C35.2968 30.5565 36.6621 29.371 38.2419 29.371C38.2718 29.371 38.3008 29.3774 38.3298 29.3815C38.3863 29.3895 38.4435 29.3968 38.5008 29.4008L39.079 29.4476L39.3065 28.9137C39.8153 27.7218 40.9798 26.9516 42.2742 26.9516C43.8371 26.9516 45.1685 28.071 45.4411 29.6137ZM31.5524 47.9194H30.9839C29.2048 47.9194 27.7581 46.4726 27.7581 44.6935C27.7581 44.3169 27.8331 43.9315 27.9798 43.5468L28.2161 42.9298L27.6573 42.5766C26.7105 41.9782 26.1452 40.9613 26.1452 39.8548C26.1452 39.2202 26.3315 38.6048 26.6839 38.0742L27.1863 37.3194L26.3782 36.9089C24.7419 36.0766 23.7258 34.425 23.7258 32.5968C23.7258 30.4508 25.1677 28.5395 27.2323 27.9484L27.7331 27.8048L27.8081 27.2895C28.0387 25.7177 29.404 24.5323 30.9839 24.5323C31.0145 24.5323 31.0444 24.5387 31.0742 24.5427C31.129 24.55 31.1839 24.5573 31.2403 24.5621L31.821 24.6105L32.0492 24.0742C32.5573 22.8831 33.7218 22.1129 35.0161 22.1129C36.579 22.1129 37.9105 23.2323 38.1831 24.775L38.3298 25.6048L39.1524 25.4218C39.4024 25.3661 39.6323 25.3387 39.8548 25.3387C40.2258 25.3387 40.5782 25.4202 40.9153 25.5379C39.7298 25.8847 38.7089 26.6718 38.0823 27.7605C35.9468 27.8323 34.1008 29.3395 33.5718 31.3927C31.075 32.3242 29.371 34.7411 29.371 37.4355C29.371 39.596 30.4339 41.571 32.1927 42.7645C31.9274 43.3702 31.7903 44.025 31.7903 44.6935C31.7903 46.1452 32.4355 47.4944 33.5427 48.4089C33.45 48.7831 33.4032 49.1589 33.4032 49.5323C33.4032 50.9492 34.0129 52.2226 34.9782 53.1113C34.4992 53.25 34.0387 53.4298 33.5968 53.6435L31.5524 47.9194ZM24.5323 58.5629V58.2435C24.5323 57.8387 24.9242 57.5266 25.3202 57.6121L29.1581 58.4653C29.0645 58.7089 28.9806 58.9565 28.9089 59.2097H25.179C24.8226 59.2097 24.5323 58.9194 24.5323 58.5629ZM22.1129 61.629C22.1129 61.1847 22.475 60.8226 22.9194 60.8226H25.179H28.6048C28.5815 61.0887 28.5645 61.3565 28.5645 61.629C28.5645 61.9016 28.5815 62.1694 28.6056 62.4355H25.179H22.9194C22.475 62.4355 22.1129 62.0734 22.1129 61.629ZM25.3185 65.646C24.9363 65.7282 24.5323 65.4185 24.5323 65.0145V64.6952C24.5323 64.3387 24.8226 64.0484 25.179 64.0484H28.9081C28.9798 64.3016 29.0645 64.5492 29.1573 64.7927L25.3185 65.646ZM68.8871 61.629C68.8871 63.0976 67.8339 64.325 66.3831 64.5484L38.7298 68.8024C38.3637 68.8589 37.9919 68.8871 37.625 68.8871H37.4355C33.4339 68.8871 30.1774 65.6306 30.1774 61.629C30.1774 57.6274 33.4339 54.371 37.4355 54.371H37.625C37.9919 54.371 38.3637 54.3992 38.729 54.4548L66.3823 58.7089C67.8339 58.9331 68.8871 60.1605 68.8871 61.629ZM68.8871 50.3798C68.8871 52.8605 67.8831 55.2605 66.1363 57.0395L64.5339 56.7927C65.2702 55.246 65.6613 53.55 65.6613 51.8194V48.8573C65.6613 45.9911 64.5694 43.2403 62.6936 41.1532C63.0194 40.846 63.4516 40.6613 63.9169 40.6613C64.3016 40.6613 64.6815 40.7855 64.9879 41.0129C67.429 42.8145 68.8871 45.6831 68.8871 48.6847V50.3798Z" fill="#1F9A14"/>
<path d="M36.6289 57.5967H38.2418V65.6612H36.6289V57.5967Z" fill="#1F9A14"/>
<path d="M43.0801 57.5967H44.693V65.6612H43.0801V57.5967Z" fill="#1F9A14"/>
<path d="M49.5322 57.5967H51.1451V65.6612H49.5322V57.5967Z" fill="#1F9A14"/>
<path d="M55.9844 59.2097H57.5973V64.0484H55.9844V59.2097Z" fill="#1F9A14"/>
<path d="M62.4355 60.0159H64.0485V63.2417H62.4355V60.0159Z" fill="#1F9A14"/>
</svg>
