<svg width="91" height="91" viewBox="0 0 91 91" fill="none" xmlns="http://www.w3.org/2000/svg">
<rect width="91" height="91" rx="45.5" fill="#FFEEEE"/>
<path d="M70.5414 38.5973L46.6129 20.8658C46.4479 20.7486 46.1509 20.5 45.5256 20.5C44.9004 20.5 44.5524 20.746 44.3868 20.8658L20.4588 38.5968C19.7154 39.1476 19.4867 40.196 19.9367 41.0053C20.4778 41.9782 21.7884 42.2646 22.6847 41.6006L23.6897 40.8559V64.8918C23.6897 67.9842 26.2055 70.5 29.2979 70.5H61.7016C64.794 70.5 67.3098 67.9842 67.3098 64.8918V40.8564L68.3152 41.6014C69.2005 42.2575 70.4938 41.987 71.046 41.0362C71.5178 40.2241 71.2951 39.156 70.5414 38.5973ZM63.5712 64.8918C63.5712 65.9226 62.7325 66.7612 61.7018 66.7612H29.298C28.2672 66.7612 27.4286 65.9226 27.4286 64.8918V38.0855L45.4998 24.6944L63.5712 38.0858V64.8918Z" fill="#FF2B2B"/>
<path d="M45.4255 55.9124C42.9954 55.9124 40.7105 54.9657 38.9915 53.2468C38.2616 52.5168 37.0779 52.5167 36.3478 53.2466C35.6178 53.9767 35.6178 55.1602 36.3478 55.8905C38.7729 58.3156 41.9968 59.6512 45.4256 59.6512C48.9479 59.6512 52.2335 58.2531 54.6771 55.7146C55.3931 54.9709 55.3706 53.7874 54.6269 53.0714C53.883 52.3553 52.6996 52.3781 51.9837 53.1216C50.2512 54.9214 47.9223 55.9124 45.4255 55.9124Z" fill="#FF2B2B"/>
</svg>
