<svg width="91" height="91" viewBox="0 0 91 91" fill="none" xmlns="http://www.w3.org/2000/svg">
<rect width="91" height="91" rx="45.5" fill="#F3F8FF"/>
<path d="M71.4009 53.1848C70.6115 52.4546 69.5953 52.06 68.5601 51.9989C69.383 49.8106 69.801 47.5068 69.801 45.1245C69.801 40.9156 68.4897 36.9055 66.0087 33.5277C65.658 33.0501 64.9864 32.9473 64.509 33.2981C64.0314 33.649 63.9287 34.3203 64.2794 34.7979C66.488 37.8048 67.6553 41.3757 67.6553 45.1245C67.6553 47.7372 67.0925 50.2433 65.9849 52.5801C65.6881 52.7465 65.4078 52.9473 65.1516 53.1842L57.8953 59.8855C57.7875 59.9852 57.296 60.3089 55.4838 60.3089C55.4725 60.3089 55.461 60.3089 55.4495 60.3089C52.6009 60.3011 48.2656 60.2935 44.9907 60.2875L43.4461 60.2848C42.6148 60.2848 41.9386 59.6973 41.9386 58.9753C41.9386 58.2638 42.629 57.6627 43.4461 57.6627H50.322C52.5159 57.6627 54.3007 55.9775 54.3007 53.9061C54.3007 53.713 54.2851 53.5234 54.2552 53.3381C55.9647 52.5697 57.1132 50.8626 57.1132 48.9092C57.1132 46.2309 54.9483 44.0518 52.2874 44.0518H48.1486C46.6541 44.0518 45.4384 42.834 45.4384 41.3369C45.4384 39.8416 46.6542 38.6251 48.1486 38.6251H50.1928H50.1954H56.0403C56.6329 38.6251 57.1132 38.1448 57.1132 37.5522C57.1132 36.9598 56.6329 36.4795 56.0403 36.4795H51.2709L51.2773 33.8971C51.2788 33.3044 50.7997 32.823 50.2071 32.8216C50.2063 32.8216 50.2053 32.8216 50.2045 32.8216C49.6132 32.8216 49.1332 33.3002 49.1316 33.8916L49.1252 36.4795H48.1487C45.4711 36.4795 43.2928 38.6585 43.2928 41.3369C43.2928 44.017 45.4712 46.1974 48.1487 46.1974H52.2875C53.7403 46.1974 54.9676 47.4392 54.9676 48.9092C54.9676 50.0086 54.2786 50.9946 53.2929 51.4108C52.5636 50.6376 51.5023 50.1493 50.3221 50.1493H33.486C32.9982 48.5222 32.7508 46.8357 32.7508 45.1246C32.7508 43.7634 32.9065 42.4215 33.213 41.118C33.3416 41.2023 33.471 41.2836 33.6015 41.3617C34.1921 41.7154 34.6492 41.8923 35.1069 41.8923C35.5643 41.8923 36.0222 41.7156 36.6144 41.3622C38.7349 40.0949 40.5949 37.9895 42.143 35.1041C43.2709 33.0009 43.9706 30.8256 44.2077 28.7245C46.1245 28.0209 48.1386 27.6634 50.2047 27.6634C52.6705 27.6634 55.0522 28.167 57.2834 29.1601C57.4252 29.2232 57.5732 29.2531 57.719 29.2531C58.1298 29.2531 58.5218 29.0157 58.6997 28.6162C58.9405 28.0749 58.6971 27.4408 58.1558 27.1998C55.6482 26.0838 52.973 25.518 50.2046 25.518C48.1677 25.518 46.1754 25.8278 44.2615 26.4383C44.1101 25.2725 43.5078 24.8851 42.6005 24.3969L35.6179 20.6287C35.2999 20.4571 34.9168 20.4571 34.5988 20.6287L27.6123 24.3987C26.5685 24.9605 25.9282 25.3877 25.9147 27.0217C25.8924 29.6374 26.638 32.4323 28.0708 35.1042C29.053 36.9348 30.1621 38.4505 31.3842 39.639C30.8674 41.4099 30.6051 43.2517 30.6051 45.1245C30.6051 46.9236 30.8484 48.6989 31.3296 50.4181C30.41 50.6559 29.5391 51.0467 28.76 51.5692C28.4159 49.9113 26.8683 48.6565 25.016 48.6565H22.083C19.9789 48.6565 18.2671 50.2754 18.2671 52.2654V66.5745C18.2671 68.5628 19.9789 70.1804 22.083 70.1804H25.016C27.1201 70.1804 28.8319 68.5628 28.8319 66.5745V66.5517L35.6308 69.601C35.6536 69.6112 35.6768 69.6206 35.7002 69.6291C37.807 70.4027 40.4963 70.4553 47.9667 70.4939C53.6225 70.5 54.3612 70.5 55.4345 70.5C58.1355 70.5 59.5167 70.2552 61.0558 68.7407C64.2578 65.7807 67.46 62.8233 70.6645 59.8637L71.3998 59.1846C72.2596 58.3914 72.7331 57.3257 72.7331 56.1841C72.7332 55.0427 72.2597 53.977 71.4009 53.1848ZM26.6864 66.5745C26.6864 67.3798 25.9371 68.0349 25.0161 68.0349H22.083C21.162 68.0349 20.4128 67.3798 20.4128 66.5745V52.2654C20.4128 51.4722 21.1776 50.8021 22.083 50.8021H25.016C25.9214 50.8021 26.6863 51.4723 26.6863 52.2654L26.6864 66.5745ZM29.9617 34.0899C28.6985 31.7346 28.041 29.2967 28.0604 27.0395C28.0626 26.7657 28.0829 26.6446 28.094 26.5985C28.1798 26.5299 28.4175 26.4019 28.6293 26.2879L35.1084 22.7916L41.5571 26.2716L41.5836 26.2858C41.7956 26.4 42.0336 26.5281 42.1199 26.597C42.1309 26.6435 42.1511 26.7654 42.1534 27.0412C42.1754 29.292 41.5179 31.7294 40.2521 34.0897C38.8903 36.6278 37.296 38.4549 35.5141 39.5199C35.2766 39.6617 35.1616 39.7165 35.1074 39.7376C35.0536 39.7164 34.9394 39.6617 34.7041 39.5209C34.7037 39.5207 34.7035 39.5205 34.7032 39.5204C32.9428 38.4683 31.3032 36.5904 29.9617 34.0899ZM69.9446 57.6081L69.2089 58.2876C66 61.2514 62.7934 64.2128 59.5868 67.1769C59.578 67.185 59.5693 67.1932 59.5609 67.2016C58.657 68.0948 58.0059 68.3544 55.4347 68.3544C54.3617 68.3544 53.6233 68.3544 47.9736 68.3484C41.1362 68.313 38.2658 68.2726 36.4735 67.6271L28.8321 64.2V54.3294C29.9654 53.0497 31.6609 52.2948 33.4385 52.2948H50.3222C51.0252 52.2948 51.6361 52.6449 51.9436 53.1567C51.9494 53.1674 51.9549 53.1783 51.9611 53.1887C52.0842 53.4051 52.1552 53.6482 52.1552 53.906C52.1552 54.7944 51.3329 55.517 50.3222 55.517H43.4463C41.4319 55.517 39.7931 57.0684 39.7931 58.9752C39.7931 60.8803 41.432 62.4303 43.4444 62.4303L44.9871 62.4331C48.2612 62.4389 52.5958 62.4467 55.4444 62.4543C55.4575 62.4544 55.4702 62.4544 55.4832 62.4544C57.3894 62.4543 58.6197 62.1382 59.3518 61.461L66.6081 54.7598C67.5122 53.9236 69.04 53.9235 69.9452 54.7608C70.3596 55.1431 70.5878 55.6486 70.5878 56.1841C70.5876 56.7199 70.3594 57.2254 69.9446 57.6081Z" fill="#3484FC"/>
<path d="M61.849 31.7828C62.1235 31.7828 62.3981 31.6781 62.6075 31.4686C63.0266 31.0496 63.0266 30.3704 62.6075 29.9513L62.6046 29.9484C62.1856 29.5297 61.5078 29.5309 61.0889 29.95C60.6698 30.3689 60.6714 31.0496 61.0904 31.4687C61.2998 31.6781 61.5744 31.7828 61.849 31.7828Z" fill="#3484FC"/>
<path d="M34.6377 33.7214C34.9171 33.7214 35.196 33.6129 35.406 33.3975L39.1922 29.5134C39.6057 29.089 39.597 28.4098 39.1727 27.9963C38.7485 27.5827 38.0692 27.5913 37.6556 28.0156L34.6035 31.1469L33.5443 30.1555C33.1117 29.7506 32.4329 29.7728 32.0278 30.2057C31.623 30.6382 31.6454 31.3171 32.078 31.722L33.9047 33.4319C34.1114 33.6253 34.3748 33.7214 34.6377 33.7214Z" fill="#3484FC"/>
</svg>
