<svg width="48" height="48" viewBox="0 0 48 48" fill="none" xmlns="http://www.w3.org/2000/svg">
<rect width="48" height="48" rx="24" fill="white"/>
<path d="M25.0286 14.0012C25.7583 13.9984 26.488 14.0058 27.2176 14.0232L27.4116 14.0302C27.6356 14.0382 27.8566 14.0482 28.1236 14.0602C29.1876 14.1102 29.9136 14.2782 30.5506 14.5252C31.2106 14.7792 31.7666 15.1232 32.3226 15.6792C32.831 16.1788 33.2244 16.7832 33.4756 17.4502C33.7226 18.0872 33.8906 18.8142 33.9406 19.8782C33.9526 20.1442 33.9626 20.3662 33.9706 20.5902L33.9766 20.7842C33.9943 21.5134 34.002 22.2428 33.9996 22.9722L34.0006 23.7182V25.0282C34.003 25.758 33.9954 26.4877 33.9776 27.2172L33.9716 27.4112C33.9636 27.6352 33.9536 27.8562 33.9416 28.1232C33.8916 29.1872 33.7216 29.9132 33.4756 30.5502C33.2252 31.218 32.8317 31.8228 32.3226 32.3222C31.8225 32.8306 31.2179 33.224 30.5506 33.4752C29.9136 33.7222 29.1876 33.8902 28.1236 33.9402C27.8566 33.9522 27.6356 33.9622 27.4116 33.9702L27.2176 33.9762C26.4881 33.994 25.7583 34.0017 25.0286 33.9992L24.2826 34.0002H22.9736C22.2438 34.0027 21.5141 33.995 20.7846 33.9772L20.5906 33.9712C20.3532 33.9626 20.1158 33.9526 19.8786 33.9412C18.8146 33.8912 18.0886 33.7212 17.4506 33.4752C16.7833 33.2246 16.1788 32.8311 15.6796 32.3222C15.1706 31.8225 14.7768 31.2178 14.5256 30.5502C14.2786 29.9132 14.1106 29.1872 14.0606 28.1232C14.0494 27.8859 14.0394 27.6486 14.0306 27.4112L14.0256 27.2172C14.0071 26.4877 13.9988 25.758 14.0006 25.0282V22.9722C13.9978 22.2428 14.0051 21.5134 14.0226 20.7842L14.0296 20.5902C14.0376 20.3662 14.0476 20.1442 14.0596 19.8782C14.1096 18.8132 14.2776 18.0882 14.5246 17.4502C14.7759 16.7829 15.1705 16.1787 15.6806 15.6802C16.1795 15.171 16.7835 14.7768 17.4506 14.5252C18.0886 14.2782 18.8136 14.1102 19.8786 14.0602L20.5906 14.0302L20.7846 14.0252C21.5138 14.0068 22.2432 13.9985 22.9726 14.0002L25.0286 14.0012ZM24.0006 19.0012C23.3381 18.9919 22.6803 19.1143 22.0656 19.3613C21.4508 19.6083 20.8912 19.9751 20.4194 20.4403C19.9476 20.9055 19.573 21.4598 19.3173 22.071C19.0616 22.6822 18.9299 23.3382 18.9299 24.0007C18.9299 24.6633 19.0616 25.3192 19.3173 25.9305C19.573 26.5417 19.9476 27.096 20.4194 27.5612C20.8912 28.0264 21.4508 28.3931 22.0656 28.6402C22.6803 28.8872 23.3381 29.0096 24.0006 29.0002C25.3267 29.0002 26.5984 28.4734 27.5361 27.5358C28.4738 26.5981 29.0006 25.3263 29.0006 24.0002C29.0006 22.6741 28.4738 21.4024 27.5361 20.4647C26.5984 19.527 25.3267 19.0012 24.0006 19.0012ZM24.0006 21.0012C24.3991 20.9939 24.7951 21.066 25.1654 21.2134C25.5357 21.3608 25.8729 21.5806 26.1574 21.8598C26.4418 22.139 26.6678 22.4721 26.822 22.8396C26.9763 23.2071 27.0558 23.6016 27.0558 24.0002C27.0559 24.3988 26.9766 24.7934 26.8224 25.1609C26.6683 25.5285 26.4424 25.8617 26.1581 26.141C25.8737 26.4203 25.5366 26.6401 25.1663 26.7876C24.796 26.9352 24.4001 27.0074 24.0016 27.0002C23.2059 27.0002 22.4429 26.6842 21.8803 26.1216C21.3176 25.5589 21.0016 24.7959 21.0016 24.0002C21.0016 23.2046 21.3176 22.4415 21.8803 21.8789C22.4429 21.3163 23.2059 21.0002 24.0016 21.0002L24.0006 21.0012ZM29.2506 17.5012C28.928 17.5141 28.6229 17.6514 28.3992 17.8842C28.1755 18.117 28.0506 18.4274 28.0506 18.7502C28.0506 19.0731 28.1755 19.3834 28.3992 19.6163C28.6229 19.8491 28.928 19.9863 29.2506 19.9992C29.5821 19.9992 29.9 19.8675 30.1345 19.6331C30.3689 19.3987 30.5006 19.0808 30.5006 18.7492C30.5006 18.4177 30.3689 18.0998 30.1345 17.8653C29.9 17.6309 29.5821 17.4992 29.2506 17.4992V17.5012Z" fill="black"/>
</svg>
