<svg width="20" height="20" viewBox="0 0 20 20" fill="none" xmlns="http://www.w3.org/2000/svg">
<path d="M12.8169 10.6291H0.851333C0.509693 10.6291 0.232422 10.3406 0.232422 9.98503C0.232422 9.62951 0.509693 9.34097 0.851333 9.34097H12.8169C13.1585 9.34097 13.4358 9.62951 13.4358 9.98503C13.4358 10.3406 13.1585 10.6291 12.8169 10.6291Z" fill="black"/>
<path d="M9.54183 14.1715C9.3844 14.1715 9.22711 14.1097 9.10734 13.9851C8.86721 13.7369 8.86721 13.3345 9.10734 13.0861L11.9516 10.1461L9.10734 7.20588C8.86721 6.95764 8.86721 6.55504 9.10734 6.3068C9.34763 6.05857 9.73694 6.05857 9.97707 6.3068L13.2556 9.69613C13.4958 9.94436 13.4958 10.3468 13.2556 10.595L9.97707 13.9842C9.85656 14.1097 9.69927 14.1715 9.54183 14.1715Z" fill="black"/>
<path d="M10.0812 19.324C6.29512 19.324 2.95258 17.0396 1.56411 13.5034C1.43768 13.1831 1.59564 12.8193 1.91599 12.6925C2.23542 12.5674 2.59903 12.7234 2.72546 13.0463C3.92429 16.0992 6.81182 18.0725 10.0812 18.0725C14.4388 18.0725 17.9845 14.5163 17.9845 10.1461C17.9845 5.77577 14.4388 2.21962 10.0812 2.21962C6.81182 2.21962 3.92429 4.19286 2.72546 7.24577C2.59811 7.56874 2.23542 7.72472 1.91599 7.5996C1.59564 7.47279 1.43768 7.10904 1.56411 6.78867C2.95258 3.25253 6.29512 0.968086 10.0812 0.968086C15.1268 0.968086 19.2324 5.08568 19.2324 10.1461C19.2324 15.2064 15.1268 19.324 10.0812 19.324Z" fill="black"/>
</svg>
