<svg width="36" height="36" viewBox="0 0 36 36" fill="none" xmlns="http://www.w3.org/2000/svg">
<path d="M27.3699 23.8153C26.1937 22.6541 24.7254 22.6541 23.5567 23.8153C22.6652 24.6993 21.7737 25.5833 20.8972 26.4822C20.6575 26.7295 20.4553 26.7819 20.1631 26.6171C19.5862 26.3025 18.9719 26.0477 18.4176 25.7031C15.833 24.0775 13.668 21.9874 11.7502 19.6351C10.7988 18.4664 9.95225 17.2153 9.36043 15.8069C9.24056 15.5223 9.26304 15.335 9.49527 15.1027C10.3868 14.2412 11.2558 13.3572 12.1323 12.4733C13.3534 11.2447 13.3534 9.8063 12.1248 8.57021C11.4281 7.86601 10.7314 7.1768 10.0347 6.4726C9.31548 5.75343 8.60379 5.02676 7.87712 4.31507C6.70097 3.16888 5.23264 3.16888 4.06398 4.32256C3.165 5.20655 2.30349 6.11301 1.38953 6.98202C0.543 7.78361 0.115987 8.76499 0.0260899 9.91118C-0.116248 11.7765 0.34073 13.537 0.984995 15.2526C2.30349 18.8035 4.31119 21.9574 6.74591 24.8491C10.0347 28.7596 13.9602 31.8536 18.5524 34.0861C20.6201 35.0899 22.7626 35.8615 25.0925 35.9889C26.6956 36.0788 28.089 35.6743 29.2053 34.4232C29.9694 33.5692 30.8309 32.79 31.64 31.9735C32.8386 30.7599 32.8461 29.2915 31.655 28.0929C30.2316 26.662 28.8007 25.2387 27.3699 23.8153Z" fill="#E30713"/>
<path d="M25.9391 17.8446L28.7034 17.3727C28.2689 14.8331 27.0703 12.5332 25.2499 10.7053C23.3246 8.77997 20.8899 7.56636 18.2079 7.19179L17.8184 9.97111C19.8935 10.2633 21.7813 11.1997 23.2721 12.6905C24.6805 14.0989 25.602 15.8819 25.9391 17.8446Z" fill="#E30713"/>
<path d="M30.2618 5.82834C27.0704 2.63699 23.0325 0.62179 18.5751 0L18.1855 2.77933C22.0361 3.31871 25.5272 5.06422 28.284 7.81358C30.8985 10.4281 32.6141 13.7318 33.2359 17.3652L36.0002 16.8932C35.2735 12.683 33.2883 8.86238 30.2618 5.82834Z" fill="#E30713"/>
</svg>
