<svg width="48" height="48" viewBox="0 0 48 48" fill="none" xmlns="http://www.w3.org/2000/svg">
<rect width="48" height="48" rx="24" fill="white"/>
<rect x="0.5" y="0.5" width="47" height="47" rx="23.5" stroke="#EDEDED" stroke-opacity="0.08"/>
<path d="M24.006 16.2949C21.336 16.2949 18.668 17.0789 16.361 18.6479H12L13.963 20.7829C13.0686 21.5978 12.4416 22.6642 12.1644 23.8419C11.8872 25.0197 11.9727 26.2537 12.4097 27.382C12.8468 28.5103 13.6148 29.48 14.6131 30.1637C15.6113 30.8474 16.7931 31.2132 18.003 31.2129C19.5147 31.2138 20.9707 30.6422 22.078 29.6129L24 31.7049L25.922 29.6149C27.0283 30.6436 28.4834 31.2146 29.994 31.2129C31.585 31.2129 33.1108 30.5811 34.2359 29.4563C35.3611 28.3315 35.9935 26.8059 35.994 25.2149C35.9951 24.3805 35.8215 23.5552 35.4844 22.7919C35.1474 22.0286 34.6544 21.3443 34.037 20.7829L36 18.6479H31.65C29.3962 17.1135 26.7325 16.2935 24.006 16.2949ZM24 18.2549C25.531 18.2549 27.063 18.5579 28.504 19.1579C25.943 20.1379 24 22.4299 24 25.0999C24 22.4289 22.058 20.1379 19.496 19.1579C20.923 18.5626 22.4538 18.255 24 18.2549ZM18.002 21.1569C18.535 21.1569 19.0629 21.2619 19.5553 21.4659C20.0478 21.6699 20.4952 21.9689 20.8721 22.3458C21.2491 22.7227 21.548 23.1702 21.752 23.6626C21.956 24.1551 22.061 24.6829 22.061 25.2159C22.061 25.749 21.956 26.2768 21.752 26.7692C21.548 27.2617 21.2491 27.7092 20.8721 28.0861C20.4952 28.463 20.0478 28.762 19.5553 28.966C19.0629 29.1699 18.535 29.2749 18.002 29.2749C16.9255 29.2749 15.8931 28.8473 15.1319 28.0861C14.3706 27.3249 13.943 26.2924 13.943 25.2159C13.943 24.1394 14.3706 23.107 15.1319 22.3458C15.8931 21.5846 16.9255 21.1569 18.002 21.1569ZM29.994 21.1589C30.5268 21.1587 31.0545 21.2635 31.5469 21.4672C32.0392 21.6709 32.4866 21.9696 32.8635 22.3463C33.2404 22.7229 33.5395 23.1701 33.7436 23.6623C33.9477 24.1545 34.0528 24.6821 34.053 25.2149C34.0532 25.7478 33.9484 26.2754 33.7447 26.7678C33.541 27.2601 33.2423 27.7075 32.8656 28.0844C32.489 28.4614 32.0418 28.7604 31.5496 28.9645C31.0574 29.1686 30.5298 29.2737 29.997 29.2739C28.9209 29.2743 27.8887 28.8472 27.1275 28.0866C26.3663 27.3259 25.9384 26.294 25.938 25.2179C25.9376 24.1418 26.3647 23.1096 27.1254 22.3484C27.886 21.5872 28.9179 21.1593 29.994 21.1589ZM18.002 23.0889C17.4376 23.0889 16.8964 23.3131 16.4973 23.7122C16.0982 24.1113 15.874 24.6525 15.874 25.2169C15.874 25.7813 16.0982 26.3226 16.4973 26.7216C16.8964 27.1207 17.4376 27.3449 18.002 27.3449C18.5664 27.3449 19.1076 27.1207 19.5067 26.7216C19.9058 26.3226 20.13 25.7813 20.13 25.2169C20.13 24.6525 19.9058 24.1113 19.5067 23.7122C19.1076 23.3131 18.5664 23.0889 18.002 23.0889ZM29.994 23.0889C29.4296 23.0889 28.8884 23.3131 28.4893 23.7122C28.0902 24.1113 27.866 24.6525 27.866 25.2169C27.866 25.7813 28.0902 26.3226 28.4893 26.7216C28.8884 27.1207 29.4296 27.3449 29.994 27.3449C30.5584 27.3449 31.0996 27.1207 31.4987 26.7216C31.8978 26.3226 32.122 25.7813 32.122 25.2169C32.122 24.6525 31.8978 24.1113 31.4987 23.7122C31.0996 23.3131 30.5584 23.0889 29.994 23.0889Z" fill="black"/>
</svg>
