<svg width="48" height="48" viewBox="0 0 48 48" fill="none" xmlns="http://www.w3.org/2000/svg">
<rect width="48" height="48" rx="24" fill="white"/>
<rect x="0.5" y="0.5" width="47" height="47" rx="23.5" stroke="#EDEDED" stroke-opacity="0.08"/>
<path d="M28.6002 17.82C27.9166 17.0396 27.5399 16.0374 27.5402 15H24.4502V27.4C24.4263 28.071 24.143 28.7066 23.6599 29.1729C23.1768 29.6393 22.5316 29.8999 21.8602 29.9C20.4402 29.9 19.2602 28.74 19.2602 27.3C19.2602 25.58 20.9202 24.29 22.6302 24.82V21.66C19.1802 21.2 16.1602 23.88 16.1602 27.3C16.1602 30.63 18.9202 33 21.8502 33C24.9902 33 27.5402 30.45 27.5402 27.3V21.01C28.7932 21.9099 30.2975 22.3926 31.8402 22.39V19.3C31.8402 19.3 29.9602 19.39 28.6002 17.82Z" fill="black"/>
</svg>
